# xmcd CD database file
#
# Track frame offsets:
#	150
#	17356
#	33344
#	50841
#	65389
#	82510
#	95245
#	112854
#	132562
#	146819
#	162884
#	179776
#	192846
#	210959
#	228399
#	241003
#	256112
#	274775
#
# Disc length: 3861 seconds
#
# Revision: 0
# Processed by: cddbd v1.5.1PL0 Copyright (c) Steve Scherf et al.
# Submitted via: CDex 1.51
#
DISCID=f00f1312
DTITLE=Various Artist - Promo Only Canada July 2002 Country Radio
DYEAR=2002
DGENRE=Country
TTITLE0=Chris Cummings - Betty
TTITLE1=Blackhawk - One Night In New Orleans
TTITLE2=Joe Nichols - The Impossible
TTITLE3=Toby Keith - Courtesy Of The Red White and Blue (The Angry American)
TTITLE4=Lee Ann Womack - Something Worth Leaving Behind
TTITLE5=McBride and The Ride - Squeeze Box
TTITLE6=Shannon Lawson - Goodbye On A Bad Day
TTITLE7=Tammy Cochran - Life Happened
TTITLE8=Chris Knight - Oil Patch Town
TTITLE9=Alabama - I'm In The Mood
TTITLE10=Tommy Shane Steiner - Tell Me Where It Hurts
TTITLE11=Paul Brandt - I'm Gonna Fly
TTITLE12=Dwight Yoakam - I'm Bad, I'm Nationwide
TTITLE13=Anthony Smith - If That Ain't Country
TTITLE14=Kacey Jones - I Thought He Was Mr. Right (But He Left)
TTITLE15=Casey Lee Green - In The Night
TTITLE16=Johnny Patton and Linda Davis - Throughout Eternity
TTITLE17=Ray Stevens - Hello Mama
EXTD=YEAR: 2002
EXTT0=
EXTT1=
EXTT2=
EXTT3=
EXTT4=
EXTT5=
EXTT6=
EXTT7=
EXTT8=
EXTT9=
EXTT10=
EXTT11=
EXTT12=
EXTT13=
EXTT14=
EXTT15=
EXTT16=
EXTT17=
PLAYORDER=
